<mxfile host="app.diagrams.net" modified="2023-09-06T09:28:55.156Z" agent="Mozilla/5.0 (Windows NT 10.0; Win64; x64) AppleWebKit/537.36 (KHTML, like Gecko) Chrome/116.0.0.0 Safari/537.36 Edg/116.0.1938.69" etag="DuycgtUGpqUy-KY3Q4KE" version="21.7.2" type="github">
  <diagram name="Page-1" id="58cdce13-f638-feb5-8d6f-7d28b1aa9fa0">
    <mxGraphModel dx="1392" dy="770" grid="1" gridSize="10" guides="1" tooltips="1" connect="1" arrows="1" fold="1" page="1" pageScale="1" pageWidth="1100" pageHeight="850" background="none" math="0" shadow="0">
      <root>
        <mxCell id="0" />
        <mxCell id="1" parent="0" />
        <mxCell id="uIobyUuvcLkEOKJ8yBRs-12" value="" style="edgeStyle=orthogonalEdgeStyle;rounded=0;orthogonalLoop=1;jettySize=auto;html=1;" edge="1" parent="1" source="uIobyUuvcLkEOKJ8yBRs-1" target="uIobyUuvcLkEOKJ8yBRs-11">
          <mxGeometry relative="1" as="geometry" />
        </mxCell>
        <mxCell id="uIobyUuvcLkEOKJ8yBRs-1" value="Listing Agent returns addendum A to Asset Manager" style="rounded=0;whiteSpace=wrap;html=1;" vertex="1" parent="1">
          <mxGeometry x="380" y="240" width="120" height="60" as="geometry" />
        </mxCell>
        <mxCell id="uIobyUuvcLkEOKJ8yBRs-7" value="" style="edgeStyle=orthogonalEdgeStyle;rounded=0;orthogonalLoop=1;jettySize=auto;html=1;" edge="1" parent="1" source="uIobyUuvcLkEOKJ8yBRs-2" target="uIobyUuvcLkEOKJ8yBRs-6">
          <mxGeometry relative="1" as="geometry" />
        </mxCell>
        <mxCell id="uIobyUuvcLkEOKJ8yBRs-8" value="Accepts As Is" style="edgeLabel;html=1;align=center;verticalAlign=middle;resizable=0;points=[];" vertex="1" connectable="0" parent="uIobyUuvcLkEOKJ8yBRs-7">
          <mxGeometry x="-0.3649" y="-2" relative="1" as="geometry">
            <mxPoint as="offset" />
          </mxGeometry>
        </mxCell>
        <mxCell id="uIobyUuvcLkEOKJ8yBRs-2" value="master broker&amp;nbsp;&lt;br&gt;to review" style="rounded=0;whiteSpace=wrap;html=1;" vertex="1" parent="1">
          <mxGeometry x="380" y="530" width="120" height="60" as="geometry" />
        </mxCell>
        <mxCell id="uIobyUuvcLkEOKJ8yBRs-10" value="Route to file manager with request to sign" style="edgeStyle=orthogonalEdgeStyle;rounded=0;orthogonalLoop=1;jettySize=auto;html=1;" edge="1" parent="1" source="uIobyUuvcLkEOKJ8yBRs-6" target="uIobyUuvcLkEOKJ8yBRs-9">
          <mxGeometry relative="1" as="geometry" />
        </mxCell>
        <mxCell id="uIobyUuvcLkEOKJ8yBRs-6" value="Asset Manager" style="rounded=0;whiteSpace=wrap;html=1;" vertex="1" parent="1">
          <mxGeometry x="380" y="670" width="120" height="60" as="geometry" />
        </mxCell>
        <mxCell id="uIobyUuvcLkEOKJ8yBRs-21" value="Launches Readiness for &lt;br&gt;Closing and Attaches" style="edgeStyle=orthogonalEdgeStyle;rounded=0;orthogonalLoop=1;jettySize=auto;html=1;" edge="1" parent="1" source="uIobyUuvcLkEOKJ8yBRs-9" target="uIobyUuvcLkEOKJ8yBRs-20">
          <mxGeometry relative="1" as="geometry" />
        </mxCell>
        <mxCell id="uIobyUuvcLkEOKJ8yBRs-9" value="File Manager&lt;br&gt;to sign" style="rounded=0;whiteSpace=wrap;html=1;" vertex="1" parent="1">
          <mxGeometry x="380" y="850" width="120" height="60" as="geometry" />
        </mxCell>
        <mxCell id="uIobyUuvcLkEOKJ8yBRs-13" style="edgeStyle=orthogonalEdgeStyle;rounded=0;orthogonalLoop=1;jettySize=auto;html=1;entryX=1;entryY=0.5;entryDx=0;entryDy=0;exitX=1;exitY=0.5;exitDx=0;exitDy=0;" edge="1" parent="1" source="uIobyUuvcLkEOKJ8yBRs-11" target="uIobyUuvcLkEOKJ8yBRs-1">
          <mxGeometry relative="1" as="geometry" />
        </mxCell>
        <mxCell id="uIobyUuvcLkEOKJ8yBRs-14" style="edgeStyle=orthogonalEdgeStyle;rounded=0;orthogonalLoop=1;jettySize=auto;html=1;" edge="1" parent="1" source="uIobyUuvcLkEOKJ8yBRs-11" target="uIobyUuvcLkEOKJ8yBRs-2">
          <mxGeometry relative="1" as="geometry" />
        </mxCell>
        <mxCell id="uIobyUuvcLkEOKJ8yBRs-15" value="Route Contact Addendum &lt;br&gt;A to Master Broker" style="edgeLabel;html=1;align=center;verticalAlign=middle;resizable=0;points=[];" vertex="1" connectable="0" parent="uIobyUuvcLkEOKJ8yBRs-14">
          <mxGeometry x="-0.1925" y="1" relative="1" as="geometry">
            <mxPoint as="offset" />
          </mxGeometry>
        </mxCell>
        <mxCell id="uIobyUuvcLkEOKJ8yBRs-11" value="Asset Manager Reviews Contract, routes back to the LA for changes" style="rounded=0;whiteSpace=wrap;html=1;" vertex="1" parent="1">
          <mxGeometry x="370" y="380" width="120" height="60" as="geometry" />
        </mxCell>
        <mxCell id="uIobyUuvcLkEOKJ8yBRs-18" value="No, route back to AM &lt;br&gt;for additional changes" style="edgeStyle=orthogonalEdgeStyle;rounded=0;orthogonalLoop=1;jettySize=auto;html=1;exitX=0;exitY=0.5;exitDx=0;exitDy=0;entryX=0;entryY=0.5;entryDx=0;entryDy=0;" edge="1" parent="1" source="uIobyUuvcLkEOKJ8yBRs-2" target="uIobyUuvcLkEOKJ8yBRs-11">
          <mxGeometry relative="1" as="geometry">
            <mxPoint x="290.0000000000002" y="520" as="sourcePoint" />
            <Array as="points">
              <mxPoint x="280" y="560" />
              <mxPoint x="280" y="380" />
            </Array>
          </mxGeometry>
        </mxCell>
        <mxCell id="uIobyUuvcLkEOKJ8yBRs-23" style="edgeStyle=orthogonalEdgeStyle;rounded=0;orthogonalLoop=1;jettySize=auto;html=1;" edge="1" parent="1" source="uIobyUuvcLkEOKJ8yBRs-20" target="uIobyUuvcLkEOKJ8yBRs-22">
          <mxGeometry relative="1" as="geometry" />
        </mxCell>
        <mxCell id="uIobyUuvcLkEOKJ8yBRs-20" value="Asset specialist&lt;br&gt;Reviews and Uploads executed seller signed contract" style="rounded=0;whiteSpace=wrap;html=1;" vertex="1" parent="1">
          <mxGeometry x="760" y="850" width="120" height="60" as="geometry" />
        </mxCell>
        <mxCell id="uIobyUuvcLkEOKJ8yBRs-22" value="Asset Manager Completed Contract Addendum A" style="rounded=0;whiteSpace=wrap;html=1;" vertex="1" parent="1">
          <mxGeometry x="850" y="740" width="120" height="60" as="geometry" />
        </mxCell>
      </root>
    </mxGraphModel>
  </diagram>
</mxfile>
